Simulation
nRows=15
nColumns=15
endheader
time  TH_x TH_y TH_z SC_y  SC_z  SC_x  AC_y  AC_z  AC_x  GH_y  GH_z  GH_yy  EL_x  PS_y
5.382082397003745  0.000000  0.000000  0.000000  -36.066995573939195  8.24553578494084  1.3392505502770982  51.76828785997631  15.367111024231129  4.444164577407134  11.040094663434092  79.84725098761984  -13.499166814732177  13.410909854031864  120.000000
5.422247191011236  0.000000  0.000000  0.000000  -35.96418807133194  8.182385114867506  1.8317702265153846  51.864583212353566  15.115081237138945  4.139057050842172  10.981134571305189  79.72622548952297  -13.48518522851256  13.433240504006761  120.000000
5.4624119850187265  0.000000  0.000000  0.000000  -35.75489104846749  8.073440716123265  2.143555769336504  51.974784655618365  14.85550795628173  3.8694985250509335  10.941400913171876  79.38414525041587  -13.26896823378515  13.375048623562312  120.000000
5.502576779026217  0.000000  0.000000  0.000000  -35.43882998178765  7.918832941362842  2.2599652153284184  52.09833920509487  14.584740874272962  3.6408926400771215  10.919894461326471  78.8026009337208  -12.8649933918174  13.252216477398541  120.000000
5.542741573033708  0.000000  0.000000  0.000000  -35.01794252366583  7.718607806995536  2.170577426213423  52.234413045151506  14.300141317589322  3.459851952915716  10.912323783301185  77.96221703041739  -12.29323693966795  13.087040342942554  120.000000
5.582906367041199  0.000000  0.000000  0.000000  -34.49676480717331  7.473099461371541  1.8709198110428915  52.38098155061357  14.001129801191588  3.3338624031668216  10.911501222099778  76.84506769885476  -11.576885872392177  12.90399479041783  120.000000
5.623071161048689  0.000000  0.000000  0.000000  -33.88271021393238  7.183595436394571  1.3638709539828608  52.533988603455725  13.690192997886  3.2708443190192305  10.908019955655188  75.43712462906886  -10.738979507443032  12.725455410434813  120.000000
5.66323595505618  0.000000  0.000000  0.000000  -33.18593063235221  6.853066939868843  0.6602105253773769  52.68737106508717  13.373396437325285  3.2782809652805334  10.891255699837908  73.73026455028388  -9.799418621792503  12.56827114612305  120.000000
5.70340074906367  0.000000  0.000000  0.000000  -32.418806886716254  6.4866712567524045  -0.2214519571996452  52.83393427330346  13.059763814033413  3.362173381243944  10.85066480700486  71.72334178947509  -8.773174371486128  12.442011925425321  120.000000
5.743565543071161  0.000000  0.000000  0.000000  -31.59486878572124  6.091898200891413  -1.2555689306958613  52.96661285790054  12.760041609174623  3.52596109511616  10.777203809668817  69.42239974783622  -7.669637138482843  12.349011923209522  120.000000
5.7837303370786515  0.000000  0.000000  0.000000  -30.727690936650664  5.678538465711441  -2.4110999975217493  53.080032858604355  12.485144968835165  3.7698998524865655  10.664451099936986  66.84025866339216  -6.493015521806877  12.285743152010276  120.000000
5.823895131086142  0.000000  0.000000  0.000000  -29.830284373733683  5.258139080820162  -3.6533501138095676  53.17165454144264  12.244549001445174  4.090675101904471  10.509317706971656  63.99587551638123  -5.2433618000020195  12.24505446554208  120.000000
5.864059925093633  0.000000  0.000000  0.000000  -28.915305849303788  4.84332338721289  -4.946346893429401  53.24214330489705  12.04501882058985  4.481899435024723  10.312393523886453  60.913442483035624  -3.917899308188675  12.218137485706166  120.000000
5.904224719101124  0.000000  0.000000  0.000000  -27.995745616013604  4.446890276770359  -6.255290060525606  53.29493510920055  11.890301215292501  4.9348361420580735  10.077270041582155  57.621928949646346  -2.512104830781289  12.196373756893287  120.000000
5.944389513108614  0.000000  0.000000  0.000000  -27.08596948756568  4.081734533435299  -7.547180509915092  53.335344752769466  11.780374369659247  5.43830371548336  9.809432073195271  54.154920239014444  -1.0204428043652036  12.172741512137238  120.000000
